<svg width="84" height="45" viewBox="0 0 84 45" fill="none" xmlns="http://www.w3.org/2000/svg">
<path d="M15.57 11.94V16.05H6.99V20.49H13.41V24.48H6.99V33H1.86V11.94H15.57ZM25.8863 33.24C24.2463 33.24 22.7663 32.89 21.4463 32.19C20.1463 31.49 19.1163 30.49 18.3563 29.19C17.6163 27.89 17.2463 26.37 17.2463 24.63C17.2463 22.91 17.6263 21.4 18.3862 20.1C19.1463 18.78 20.1863 17.77 21.5063 17.07C22.8263 16.37 24.3063 16.02 25.9463 16.02C27.5863 16.02 29.0663 16.37 30.3863 17.07C31.7063 17.77 32.7463 18.78 33.5063 20.1C34.2663 21.4 34.6463 22.91 34.6463 24.63C34.6463 26.35 34.2563 27.87 33.4763 29.19C32.7163 30.49 31.6663 31.49 30.3263 32.19C29.0063 32.89 27.5263 33.24 25.8863 33.24ZM25.8863 28.8C26.8663 28.8 27.6963 28.44 28.3763 27.72C29.0763 27 29.4263 25.97 29.4263 24.63C29.4263 23.29 29.0863 22.26 28.4063 21.54C27.7463 20.82 26.9263 20.46 25.9463 20.46C24.9463 20.46 24.1163 20.82 23.4563 21.54C22.7963 22.24 22.4663 23.27 22.4663 24.63C22.4663 25.97 22.7863 27 23.4263 27.72C24.0863 28.44 24.9063 28.8 25.8863 28.8ZM44.9878 33.24C43.3478 33.24 41.8678 32.89 40.5478 32.19C39.2478 31.49 38.2178 30.49 37.4578 29.19C36.7178 27.89 36.3478 26.37 36.3478 24.63C36.3478 22.91 36.7278 21.4 37.4878 20.1C38.2478 18.78 39.2878 17.77 40.6078 17.07C41.9278 16.37 43.4078 16.02 45.0478 16.02C46.6878 16.02 48.1678 16.37 49.4878 17.07C50.8078 17.77 51.8478 18.78 52.6078 20.1C53.3678 21.4 53.7478 22.91 53.7478 24.63C53.7478 26.35 53.3578 27.87 52.5778 29.19C51.8178 30.49 50.7678 31.49 49.4278 32.19C48.1078 32.89 46.6278 33.24 44.9878 33.24ZM44.9878 28.8C45.9678 28.8 46.7978 28.44 47.4778 27.72C48.1778 27 48.5278 25.97 48.5278 24.63C48.5278 23.29 48.1878 22.26 47.5078 21.54C46.8478 20.82 46.0278 20.46 45.0478 20.46C44.0478 20.46 43.2178 20.82 42.5578 21.54C41.8978 22.24 41.5678 23.27 41.5678 24.63C41.5678 25.97 41.8878 27 42.5278 27.72C43.1878 28.44 44.0078 28.8 44.9878 28.8ZM55.4494 24.6C55.4494 22.88 55.7694 21.37 56.4094 20.07C57.0694 18.77 57.9594 17.77 59.0794 17.07C60.1994 16.37 61.4494 16.02 62.8294 16.02C63.9294 16.02 64.9294 16.25 65.8294 16.71C66.7494 17.17 67.4694 17.79 67.9894 18.57V10.8H73.1194V33H67.9894V30.6C67.5094 31.4 66.8194 32.04 65.9194 32.52C65.0394 33 64.0094 33.24 62.8294 33.24C61.4494 33.24 60.1994 32.89 59.0794 32.19C57.9594 31.47 57.0694 30.46 56.4094 29.16C55.7694 27.84 55.4494 26.32 55.4494 24.6ZM67.9894 24.63C67.9894 23.35 67.6294 22.34 66.9094 21.6C66.2094 20.86 65.3494 20.49 64.3294 20.49C63.3094 20.49 62.4394 20.86 61.7194 21.6C61.0194 22.32 60.6694 23.32 60.6694 24.6C60.6694 25.88 61.0194 26.9 61.7194 27.66C62.4394 28.4 63.3094 28.77 64.3294 28.77C65.3494 28.77 66.2094 28.4 66.9094 27.66C67.6294 26.92 67.9894 25.91 67.9894 24.63Z" fill="#FF0157"/>
<path d="M79.26 33.24C78.36 33.24 77.62 32.98 77.04 32.46C76.48 31.92 76.2 31.26 76.2 30.48C76.2 29.68 76.48 29.01 77.04 28.47C77.62 27.93 78.36 27.66 79.26 27.66C80.14 27.66 80.86 27.93 81.42 28.47C82 29.01 82.29 29.68 82.29 30.48C82.29 31.26 82 31.92 81.42 32.46C80.86 32.98 80.14 33.24 79.26 33.24Z" fill="#FF0157"/>
</svg>
